A group of people trapped in an elevator realize that the devil is among them..
 
http://www.imdb.com/title/tt1314655/

Subs: Dutch, English.

Bowden (Chris Messina), een politierechercheur die net van de drank af is, krijgt te maken met een veel voorkomende situatie. Vijf mensen zitten vast in een lift. Na een reeks onverklaarbare gebeurtenissen komen ze er achter dat één van hen de duivel zelf is. Er zit daarnaast meer achter de vijf personen dan menigeen zal denken. Een strijd op leven en dood begint. Wie zal de lift levend verlaten?
 
http://www.moviemeter.nl/film/68038

Ondertitels: Engels, Nederlands.

General
Complete name                    : Devil-AC3-Eng.Ned.Subs-BRRip 2010 TBS\Devil-AC3-Eng.Ned.Subs-BRRip 2010.avi
Format                           : AVI
Format/Info                      : Audio Video Interleave
File size                        : 1.25 GiB
Duration                         : 1h 20mn
Overall bit rate                 : 2 218 Kbps
Writing application              : VirtualDubMod 1.5.4.1 (build 2178/release)
Writing library                  : VirtualDubMod build 2178/release
Source                           : Devil 720p Bluray x264-CBGB 

Video
ID                               : 0
Format                           : MPEG-4 Visual
Format profile                   : Simple@L3
Format settings, BVOP            : No
Format settings, QPel            : No
Format settings, GMC             : No warppoints
Format settings, Matrix          : Default (H.263)
Codec ID                         : XVID
Codec ID/Hint                    : XviD
Duration                         : 1h 20mn
Bit rate                         : 1 761 Kbps
Width                            : 720 pixels
Height                           : 304 pixels
Display aspect ratio             : 2.35:1
Frame rate                       : 23.976 fps
Resolution                       : 8 bits
Colorimetry                      : 4:2:0
Scan type                        : Progressive
Bits/(Pixel*Frame)               : 0.336
Stream size                      : 1 014 MiB (79%)
Writing library                  : XviD 1.1.2 (UTC 2006-11-01)

Audio
ID                               : 1
Format                           : AC-3
Format/Info                      : Audio Coding 3
Codec ID                         : 2000
Duration                         : 1h 20mn
Bit rate mode                    : Constant
Bit rate                         : 448 Kbps
Channel(s)                       : 6 channels
Channel positions                : Front: L C R, Surround: L R, LFE
Sampling rate                    : 48.0 KHz
Stream size                      : 258 MiB (20%)
Alignment                        : Split accross interleaves
Interleave, duration             : 42 ms (1.00 video frame)
Interleave, preload duration     : 500 ms

Thanks to Simply ReleaseS for this awesome release.Nice job peeps!

Blackbeard  TBS.